<svg xmlns="http://www.w3.org/2000/svg" viewBox="0 0 920 220" role="img" aria-labelledby="title desc">
  <title id="title">SecuredLanding</title>
  <desc id="desc">Green and blue globe logo with the words SecuredLanding and Land-Backed Lending.</desc>
  <defs>
    <linearGradient id="ocean" x1="0" y1="0" x2="1" y2="1">
      <stop offset="0" stop-color="#38bdf8"/>
      <stop offset="1" stop-color="#1d4ed8"/>
    </linearGradient>
    <linearGradient id="land" x1="0" y1="0" x2="1" y2="1">
      <stop offset="0" stop-color="#4ade80"/>
      <stop offset="1" stop-color="#15803d"/>
    </linearGradient>
  </defs>
  <g transform="translate(12 12)">
    <circle cx="98" cy="98" r="88" fill="url(#ocean)" stroke="#d1fae5" stroke-width="6"/>
    <path d="M30 95c24-30 47-29 70-18 17 8 30 6 45-9 11-11 25-16 39-13-5-13-13-25-24-34-17-14-38-22-62-22-37 0-69 21-84 52 5 15 10 29 16 44Z" fill="url(#land)"/>
    <path d="M26 111c20-8 37-5 54 8 15 12 28 16 44 13 19-4 37 2 56 19-17 23-44 37-74 37-38 0-71-23-84-56 1-7 2-14 4-21Z" fill="url(#land)"/>
    <path d="M42 150c35-22 76-22 122 1" fill="none" stroke="#ecfccb" stroke-width="6" stroke-linecap="round" opacity=".85"/>
    <path d="M62 166c28-13 57-13 88 0" fill="none" stroke="#bbf7d0" stroke-width="5" stroke-linecap="round" opacity=".8"/>
  </g>
  <g transform="translate(225 48)">
    <text x="0" y="58" fill="#ffffff" font-family="Georgia, 'Times New Roman', serif" font-size="62" font-weight="700" letter-spacing="-1">SecuredLanding</text>
    <text x="3" y="105" fill="#86efac" font-family="Arial, Helvetica, sans-serif" font-size="21" font-weight="700" letter-spacing="7">LAND-BACKED LENDING</text>
  </g>
</svg>
