<svg xmlns="http://www.w3.org/2000/svg" viewBox="0 0 720 180" role="img" aria-labelledby="title desc">
  <title id="title">Secured Landing</title>
  <desc id="desc">Green and blue globe shield with the Secured Landing wordmark.</desc>
  <defs>
    <linearGradient id="shield" x1="0" y1="0" x2="1" y2="1">
      <stop offset="0" stop-color="#0f766e"/>
      <stop offset="1" stop-color="#14532d"/>
    </linearGradient>
    <linearGradient id="globe" x1="0" y1="0" x2="1" y2="1">
      <stop offset="0" stop-color="#38bdf8"/>
      <stop offset="1" stop-color="#2563eb"/>
    </linearGradient>
  </defs>
  <g transform="translate(8 8)">
    <path d="M82 4c30 19 51 20 72 25v49c0 48-29 74-72 94C39 152 10 126 10 78V29C31 24 52 23 82 4Z" fill="url(#shield)"/>
    <circle cx="82" cy="75" r="42" fill="url(#globe)" stroke="#ecfeff" stroke-width="5"/>
    <path d="M43 74h78M82 33c-15 12-23 26-23 42s8 30 23 42m0-84c15 12 23 26 23 42s-8 30-23 42" fill="none" stroke="#ecfeff" stroke-width="4" stroke-linecap="round" opacity=".95"/>
    <path d="M48 58c12 6 21 7 31 4 7-2 10 4 9 10-1 7-8 10-14 13-8 4-14 9-17 17M116 52c-9 1-16 6-19 13-3 8 4 13 12 15 5 2 8 7 7 13" fill="none" stroke="#bbf7d0" stroke-width="8" stroke-linecap="round"/>
    <path d="M72 124c4-17 13-28 28-36" fill="none" stroke="#dcfce7" stroke-width="6" stroke-linecap="round"/>
  </g>
  <g transform="translate(190 44)">
    <text x="0" y="54" font-family="Georgia, 'Times New Roman', serif" font-size="54" font-weight="700" fill="#12372a">Secured</text>
    <text x="214" y="54" font-family="Georgia, 'Times New Roman', serif" font-size="54" font-weight="700" fill="#2563eb">Landing</text>
    <text x="3" y="90" font-family="Arial, Helvetica, sans-serif" font-size="18" font-weight="700" letter-spacing="4" fill="#64748b">LAND-BACKED LENDING</text>
  </g>
</svg>
